<?xml version="1.0" encoding="UTF-8" standalone="no"?>
<!-- Created with Inkscape (http://www.inkscape.org/) -->

<svg
   xmlns:dc="http://purl.org/dc/elements/1.1/"
   xmlns:cc="http://creativecommons.org/ns#"
   xmlns:rdf="http://www.w3.org/1999/02/22-rdf-syntax-ns#"
   xmlns:svg="http://www.w3.org/2000/svg"
   xmlns="http://www.w3.org/2000/svg"
   xmlns:sodipodi="http://sodipodi.sourceforge.net/DTD/sodipodi-0.dtd"
   xmlns:inkscape="http://www.inkscape.org/namespaces/inkscape"
   width="210mm"
   height="297mm"
   viewBox="0 0 210 297"
   version="1.1"
   id="svg8"
   inkscape:version="0.92.1 r"
   sodipodi:docname="kdelogo.svg">
  <defs
     id="defs2" />
  <sodipodi:namedview
     id="base"
     pagecolor="#ffffff"
     bordercolor="#666666"
     borderopacity="1.0"
     inkscape:pageopacity="0.0"
     inkscape:pageshadow="2"
     inkscape:zoom="0.98994949"
     inkscape:cx="172.48967"
     inkscape:cy="612.8809"
     inkscape:document-units="mm"
     inkscape:current-layer="layer1"
     showgrid="false"
     inkscape:window-width="1366"
     inkscape:window-height="721"
     inkscape:window-x="0"
     inkscape:window-y="18"
     inkscape:window-maximized="1" />
  <metadata
     id="metadata5">
    <rdf:RDF>
      <cc:Work
         rdf:about="">
        <dc:format>image/svg+xml</dc:format>
        <dc:type
           rdf:resource="http://purl.org/dc/dcmitype/StillImage" />
        <dc:title></dc:title>
      </cc:Work>
    </rdf:RDF>
  </metadata>
  <g
     inkscape:label="Layer 1"
     inkscape:groupmode="layer"
     id="layer1">
    <g
       id="g834"
       inkscape:export-xdpi="92.008545"
       inkscape:export-ydpi="92.008545">
      <circle
         r="20.980658"
         cy="147.72997"
         cx="106.5069"
         id="path25"
         style="opacity:1;fill:#2196f3;fill-opacity:1;stroke:none;stroke-width:1;stroke-miterlimit:4;stroke-dasharray:none;stroke-opacity:1" />
      <path
         inkscape:connector-curvature="0"
         id="path21"
         d="m 104.04396,159.98284 -0.44346,-2.06367 -1.24784,-0.44872 -1.24785,-0.44873 -1.956249,1.07988 -1.95625,1.07987 -1.069635,-1.06964 -1.06964,-1.06964 1.218055,-1.70695 1.21805,-1.70695 -0.49015,-1.29239 -0.49016,-1.29239 -2.143627,-0.51365 -2.143629,-0.51364 v -1.49945 -1.49945 l 1.955059,-0.33442 c 2.336457,-0.39966 2.340307,-0.40184 2.930507,-1.65812 l 0.46588,-0.99165 -1.08822,-1.73561 c -0.598525,-0.95459 -1.08608,-1.87756 -1.083457,-2.05106 0.0026,-0.1735 0.4729,-0.70411 1.045057,-1.17914 l 1.04029,-0.86369 1.97241,1.21724 c 1.649529,1.01797 2.060329,1.17018 2.509429,0.92983 0.77889,-0.41685 0.83687,-0.37693 0.83162,0.5725 -0.004,0.73868 -0.1923,0.98254 -1.33518,1.72994 -2.081219,1.36103 -3.417699,3.81934 -3.421089,6.29272 -0.005,3.93964 3.821629,7.52161 8.036189,7.52161 2.64534,0 5.40674,-1.33817 6.68677,-3.24039 0.26901,-0.39976 0.54864,-0.72456 0.6214,-0.72178 0.0728,0.003 0.48948,0.54839 0.92604,1.21248 0.43656,0.66408 1.03607,1.30364 1.33223,1.42123 0.29617,0.1176 0.7684,0.64074 1.04941,1.16253 l 0.51091,0.94872 -0.90286,0.93152 c -0.49658,0.51234 -1.05123,0.93152 -1.23256,0.93152 -0.18133,0 -1.10706,-0.4874 -2.05716,-1.08312 l -1.72747,-1.08312 -1.20687,0.46091 c -1.43595,0.5484 -1.41311,0.51671 -1.97156,2.73457 l -0.44037,1.74889 -1.59028,0.0775 -1.59028,0.0775 z m 8.24731,-10.94607 -3.26865,-4.55024 -0.0727,4.11017 -0.0727,4.11018 -0.85332,0.14987 c -0.46933,0.0824 -1.59747,0.22957 -2.50697,0.32697 l -1.65365,0.1771 v -9.69977 c 0,-7.52791 0.074,-9.72308 0.33073,-9.80387 0.1819,-0.0573 1.31001,-0.18049 2.50691,-0.27388 l 2.17617,-0.16979 0.0728,4.25378 0.0728,4.25378 3.04271,-3.8713 c 1.67348,-2.12922 3.12489,-4.00126 3.22534,-4.16009 0.17922,-0.28337 1.90151,-0.0379 4.5115,0.64292 l 0.98998,0.25824 -3.08087,3.76071 c -1.69448,2.06839 -3.24427,3.95197 -3.44398,4.18572 -0.31864,0.37296 0.0577,0.97243 3.07324,4.89479 l 3.43635,4.46978 -1.90839,0.58687 c -3.58273,1.10174 -2.88357,1.48995 -6.57722,-3.65194 z"
         style="fill:#ffffff;stroke-width:0.26458332" />
    </g>
  </g>
</svg>
